<?xml version="1.0" standalone="no"?>
<!DOCTYPE svg PUBLIC "-//W3C//DTD SVG 20010904//EN"
 "http://www.w3.org/TR/2001/REC-SVG-20010904/DTD/svg10.dtd">
<svg version="1.0" xmlns="http://www.w3.org/2000/svg"
 width="240.000000pt" height="210.000000pt" viewBox="0 0 240.000000 210.000000"
 preserveAspectRatio="xMidYMid meet">

<g transform="translate(0.000000,210.000000) scale(0.100000,-0.100000)"
fill="#000000" stroke="none">
<path d="M49 2089 c-58 -21 -59 -112 -3 -138 15 -6 81 -11 160 -11 148 0 189
-10 219 -56 9 -14 79 -262 156 -552 149 -564 170 -634 200 -694 31 -61 85
-114 142 -139 l52 -24 574 -3 c618 -3 610 -4 626 48 10 30 -12 75 -41 89 -18
8 -185 11 -564 11 -615 0 -601 -2 -646 76 -14 24 -32 64 -40 89 l-13 45 638 0
c594 0 640 1 660 18 17 14 42 99 127 442 113 458 114 463 58 489 -18 8 -266
11 -882 11 l-858 0 -22 74 c-52 177 -160 237 -422 235 -52 0 -107 -5 -121 -10z
m2173 -454 c2 -3 -32 -150 -76 -327 l-81 -323 -617 -3 -617 -2 -10 37 c-5 21
-44 165 -85 321 -42 156 -76 288 -76 293 0 9 1552 13 1562 4z"/>
<path d="M1008 370 c-87 -26 -138 -93 -138 -180 0 -125 109 -207 231 -176 59
16 95 46 120 101 47 102 -6 218 -115 250 -55 17 -59 17 -98 5z"/>
<path d="M1816 366 c-127 -47 -168 -204 -78 -299 40 -43 78 -58 138 -58 98 0
174 69 182 164 11 133 -119 237 -242 193z"/>
</g>
</svg>
