<svg version="1.1" id="Layer_1" xmlns="http://www.w3.org/2000/svg" xmlns:xlink="http://www.w3.org/1999/xlink" x="0px" y="0px"
	 width="100%" viewBox="0 0 832 448" enable-background="new 0 0 832 448" xml:space="preserve">
<path fill="#000000" opacity="1.000000" stroke="none" 
	d="
M164.654144,261.999634 
	C164.667984,201.343399 164.780930,141.186874 164.610291,81.031143 
	C164.568756,66.389778 170.690125,55.841328 183.231461,48.681957 
	C193.035080,43.085445 203.633087,40.780697 214.825333,40.779823 
	C303.476440,40.772903 392.127533,40.765854 480.778656,40.751072 
	C529.936707,40.742874 579.094849,40.747894 628.252869,40.682167 
	C639.527466,40.667095 649.933289,43.539036 659.654724,49.187584 
	C671.328125,55.970295 677.300171,66.073112 677.305420,79.546684 
	C677.336060,158.198746 677.313965,236.850830 677.309631,315.502899 
	C677.308350,338.998627 677.254883,362.494537 677.327576,385.990051 
	C677.363220,397.522491 672.619629,406.600586 663.541382,413.438873 
	C654.214783,420.464203 643.556152,424.254028 631.936646,424.262238 
	C491.294250,424.361725 350.651459,424.461761 210.009644,424.159515 
	C193.386780,424.123779 178.696228,417.927155 169.118332,403.107666 
	C165.871857,398.084564 164.647430,392.459473 164.652237,386.475677 
	C164.685516,345.150391 164.657349,303.824982 164.654144,261.999634 
M479.500000,65.944969 
	C391.542480,65.940208 303.584930,65.929710 215.627411,65.958290 
	C212.977661,65.959145 210.193649,65.927574 207.708130,66.685120 
	C203.369019,68.007599 199.194443,69.895248 198.247162,75.188927 
	C197.314346,80.401764 200.128647,83.622482 203.955719,86.479797 
	C237.988907,111.889214 272.003174,137.323990 306.002563,162.778625 
	C339.468079,187.833557 372.943390,212.875641 406.328003,238.038025 
	C411.762207,242.133820 417.395081,244.644226 424.335022,243.677048 
	C429.583893,242.945526 433.415802,239.684219 437.389069,236.705093 
	C486.820190,199.642395 536.221680,162.540207 585.638245,125.458092 
	C603.354675,112.163696 621.137817,98.957626 638.796570,85.587120 
	C646.497986,79.755920 645.443054,71.775703 636.697815,67.634514 
	C633.241638,65.997879 629.590332,66.075661 625.928528,66.072426 
	C577.452393,66.029526 528.976196,65.990799 479.500000,65.944969 
M389.430786,260.188721 
	C386.173950,257.869995 382.777344,255.720810 379.700378,253.183899 
	C376.733032,250.737381 374.515320,251.025024 371.441467,253.341782 
	C338.057800,278.502808 304.547607,303.495850 271.082092,328.548309 
	C248.283554,345.615417 225.486511,362.684601 202.720673,379.795227 
	C196.126175,384.751587 196.401566,392.098663 203.189270,396.697266 
	C206.961258,399.252747 211.148209,399.717468 215.575119,399.716187 
	C351.882080,399.677185 488.189056,399.682251 624.496033,399.679077 
	C626.162292,399.679047 627.831909,399.724213 629.494263,399.638336 
	C635.794189,399.312805 642.220642,395.286591 643.426575,390.689392 
	C645.061768,384.455383 640.878906,381.251984 636.620483,378.061768 
	C582.485046,337.506073 528.382874,296.905853 474.232971,256.369537 
	C464.102600,248.786011 467.487579,249.398087 458.086151,256.116455 
	C436.278290,271.700623 413.666107,273.288361 389.430786,260.188721 
M643.896912,247.500000 
	C643.896912,204.969742 643.896912,162.439468 643.896912,119.909203 
	C643.246094,119.557785 642.595337,119.206367 641.944519,118.854950 
	C591.469177,156.608932 540.993835,194.362915 489.745148,232.695312 
	C541.411621,271.332397 591.927979,309.109314 642.444275,346.886261 
	C642.927979,346.535858 643.411621,346.185455 643.895325,345.835083 
	C643.895325,313.390045 643.895325,280.945038 643.896912,247.500000 
M209.192535,339.658508 
	C256.465332,304.287201 303.738098,268.915894 352.088257,232.738449 
	C300.366272,194.014664 249.855209,156.197495 198.272156,117.577728 
	C198.272156,195.137360 198.272156,270.962494 198.272156,347.799408 
	C202.266830,344.815491 205.440964,342.444489 209.192535,339.658508 
z"/>
</svg>